<svg xmlns="http://www.w3.org/2000/svg" xmlns:xlink="http://www.w3.org/1999/xlink" aria-hidden="true" role="img" width="64" height="64" viewBox="0 0 20 20" style="color: rgb(74, 85, 101);"><g fill="none"><path fill="url(#iconifyReact224669)" d="M16.231 8.144a3.25 3.25 0 1 0-4.375-4.375a6.51 6.51 0 0 1 4.375 4.375"></path><path fill="url(#iconifyReact224675)" d="M16.231 8.144a3.25 3.25 0 1 0-4.375-4.375a6.51 6.51 0 0 1 4.375 4.375"></path><path fill="url(#iconifyReact224670)" d="M8.144 3.769a6.51 6.51 0 0 0-4.375 4.375a3.25 3.25 0 1 1 4.375-4.375"></path><path fill="url(#iconifyReact224676)" d="M8.144 3.769a6.51 6.51 0 0 0-4.375 4.375a3.25 3.25 0 1 1 4.375-4.375"></path><path fill="url(#iconifyReact224671)" d="m3.854 16.854l2-2l-.708-.707l-2 2a.5.5 0 1 0 .708.707"></path><path fill="url(#iconifyReact224671)" d="m16.854 16.147l-2-2l-.708.707l2 2a.5.5 0 0 0 .708-.707"></path><path fill="url(#iconifyReact224672)" d="M17 10a7 7 0 1 1-14 0a7 7 0 0 1 14 0"></path><path fill="url(#iconifyReact224673)" d="M15.75 10a5.75 5.75 0 1 1-11.5 0a5.75 5.75 0 0 1 11.5 0"></path><path fill="url(#iconifyReact224674)" fill-rule="evenodd" d="M9.5 6a.5.5 0 0 1 .5.5V10h2.5a.5.5 0 0 1 0 1h-3a.5.5 0 0 1-.5-.5v-4a.5.5 0 0 1 .5-.5" clip-rule="evenodd"></path><defs><linearGradient id="iconifyReact224669" x1="18.009" x2="12.174" y1="8.141" y2="3.368" gradientUnits="userSpaceOnUse"><stop stop-color="#ff6f47"></stop><stop offset="1" stop-color="#ffcd0f"></stop></linearGradient><linearGradient id="iconifyReact224670" x1="8.152" x2="2.317" y1="8.141" y2="3.368" gradientUnits="userSpaceOnUse"><stop stop-color="#ff6f47"></stop><stop offset="1" stop-color="#ffcd0f"></stop></linearGradient><linearGradient id="iconifyReact224671" x1="3" x2="3.547" y1="12.921" y2="17.946" gradientUnits="userSpaceOnUse"><stop stop-color="#cad2d9"></stop><stop offset="1" stop-color="#70777d"></stop></linearGradient><linearGradient id="iconifyReact224672" x1="5.333" x2="12.333" y1="2.222" y2="17.778" gradientUnits="userSpaceOnUse"><stop stop-color="#1ec8b0"></stop><stop offset="1" stop-color="#2764e7"></stop></linearGradient><linearGradient id="iconifyReact224673" x1="6" x2="13.5" y1="3" y2="19" gradientUnits="userSpaceOnUse"><stop stop-color="#fdfdfd"></stop><stop offset="1" stop-color="#dedeff"></stop></linearGradient><linearGradient id="iconifyReact224674" x1="10" x2="12.358" y1="6.278" y2="10.207" gradientUnits="userSpaceOnUse"><stop stop-color="#1ec8b0"></stop><stop offset="1" stop-color="#2764e7"></stop></linearGradient><radialGradient id="iconifyReact224675" cx="0" cy="0" r="1" gradientTransform="matrix(6.5 -6.5 6.5 6.5 10 10)" gradientUnits="userSpaceOnUse"><stop offset=".644" stop-color="#ff6f47"></stop><stop offset=".942" stop-color="#ff6f47" stop-opacity="0"></stop></radialGradient><radialGradient id="iconifyReact224676" cx="0" cy="0" r="1" gradientTransform="matrix(-6.5 -6.5 6.5 -6.5 10 10)" gradientUnits="userSpaceOnUse"><stop offset=".659" stop-color="#ff6f47"></stop><stop offset=".949" stop-color="#ff6f47" stop-opacity="0"></stop></radialGradient></defs></g></svg>