<svg xmlns="http://www.w3.org/2000/svg" xmlns:xlink="http://www.w3.org/1999/xlink" aria-hidden="true" role="img" width="64" height="64" viewBox="0 0 512 512" style="color: rgb(74, 85, 101);"><path fill="currentColor" d="M144 240h32v32h-32zm96 0h32v32h-32zm96 0h32v32h-32z"></path><path fill="currentColor" d="M464 32H48a32.036 32.036 0 0 0-32 32v288a32.036 32.036 0 0 0 32 32h64v112h30.627l112-112H464a32.036 32.036 0 0 0 32-32V64a32.036 32.036 0 0 0-32-32m0 320H241.373L144 449.373V352H48V64h416Z"></path></svg>