<svg xmlns="http://www.w3.org/2000/svg" xmlns:xlink="http://www.w3.org/1999/xlink" aria-hidden="true" role="img" width="64" height="64" viewBox="0 0 48 48" style="color: rgb(74, 85, 101);"><path fill="#00BCD4" d="M7 31h10v10H7zm28.3-11.7l-5.6-5.6c-.4-.4-.4-1 0-1.4l5.6-5.6c.4-.4 1-.4 1.4 0l5.6 5.6c.4.4.4 1 0 1.4l-5.6 5.6c-.4.4-1 .4-1.4 0"></path><circle cx="12" cy="13" r="6" fill="#3F51B5"></circle><circle cx="36" cy="36" r="6" fill="#448AFF"></circle><g fill="#90A4AE"><path d="M11 24h2v5h-2z"></path><path d="m12 21l-3 4h6z"></path></g><g fill="#90A4AE"><path d="M20 12h5v2h-5z"></path><path d="m28 13l-4-3v6z"></path></g><g fill="#90A4AE"><path d="M35 21h2v5h-2z"></path><path d="m36 29l3-4h-6z"></path></g></svg>